<?xml version="1.0" encoding="UTF-8"?>
<svg xmlns="http://www.w3.org/2000/svg" xmlns:xlink="http://www.w3.org/1999/xlink" version="1.2" >
<font id="Quadrel System">
<font-face  font-family="Quadrel" units-per-em="256" ascent="256" descent="0" font-style="normal" font-weight="400" font-stretch="normal" cap-height="192" x-height="128" underline-position="2" underline-thickness="0" />
<missing-glyph  d="" />
<glyph glyph-name="user--default" unicode="&#xe000;" horiz-adv-x="256" d="M113 238 Q95 233 83.5 217.5 Q72 202 72 183.5 Q72 165 84.5 149.5 Q97 134 115 130 Q130 126 144 130.5 Q158 135 168.5 146 Q179 157 182 171 Q187 192 176.5 211 Q166 230 146 237 Q139 239 129.5 239.5 Q120 240 113 238 Z M136 223 Q145 221 152.5 215 Q160 209 164 200 Q166 196 166.5 193 Q167 190 167 184 Q167 178 166.5 175 Q166 172 164 168 Q158 155 146.5 149 Q135 143 121 145 Q111 147 103.5 152.5 Q96 158 92 168 Q90 172 89.5 175 Q89 178 89 184 Q89 190 89.5 193 Q90 196 92 200 Q98 213 110 219.5 Q122 226 136 223 Z M91 110 Q76 107 64.5 95 Q53 83 49 68 Q48 61 48 39 L48 16 L208 16 L208 39 Q208 61 207 68 Q203 83 191 95 Q179 107 164 111 Q157 112 127 112 Q97 112 91 110 Z M160 95 Q169 93 176.5 87 Q184 81 188 72 Q191 67 191.5 64 Q192 61 192 49 L192 32 L64 32 L64 49 Q64 61 64.5 64 Q65 67 68 72 Q76 90 95 95 Q99 96 127 96 Q155 96 160 95 Z " />
<glyph glyph-name="triangle--up--solid" unicode="&#xe001;" horiz-adv-x="256" d="M88 130 L48 81 L208 81 L169 130 Q129 179 128 179.5 Q127 180 88 130 Z " />
<glyph glyph-name="triangle--right-solid" unicode="&#xe002;" horiz-adv-x="256" d="M80 128 Q80 48 80.5 48 Q81 48 130.5 87.5 Q180 127 180 128 Q180 129 130.5 168.5 Q81 208 80.5 208 Q80 208 80 128 Z " />
<glyph glyph-name="triangle--left--solid" unicode="&#xe003;" horiz-adv-x="256" d="M126 168 Q76 129 76 128.5 Q76 128 125 88.5 Q174 49 175 48.5 Q176 48 176 128 Q176 208 175.5 208 Q175 208 125 168 L126 168 Z " />
<glyph glyph-name="triangle--down--solid" unicode="&#xe004;" horiz-adv-x="256" d="M49 175 Q50 173 89 124.5 Q128 76 128 76 Q128 76 167 124.5 Q206 173 207 174 Q208 175 193 176 L63 176 Q48 175 49 175 Z " />
<glyph glyph-name="trash" unicode="&#xe005;" horiz-adv-x="256" d="M88 223 L88 205 L32 205 L32 189 L52 189 L52 40 Q53 29 54.5 25 Q56 21 60 19 L63 17 L126 16 Q189 16 192 16.5 Q195 17 199 20.5 Q203 24 204 28 Q205 32 205 110 L205 189 L224 189 L224 205 L168 205 L168 240 L88 240 L88 223 Z M152 215 L152 205 L104 205 L104 224 L152 224 L152 215 Z M189 111 L189 32 L68 32 L68 189 L189 189 L189 111 Z M99 111 L99 64 L115 64 L115 157 L99 157 L99 111 Z M141 111 L141 64 L157 64 L157 157 L141 157 L141 111 Z " />
<glyph glyph-name="times--square" unicode="&#xe006;" horiz-adv-x="256" d="M26 230 L24 227 L24 29 L29 24 L227 24 L232 29 L232 227 L227 232 L29 232 L26 230 Z M216 128 L216 40 L40 40 L40 216 L216 216 L216 128 Z M82 173 L77 168 L116 128 L77 88 L88 77 L128 116 L168 77 L179 88 L140 128 L179 168 L168 179 L128 140 L108 159 Q88 179 87.5 179 Q87 179 82 173 Z " />
<glyph glyph-name="times" unicode="&#xe007;" horiz-adv-x="256" d="M82 173 L77 168 L116 128 L77 88 L88 77 L128 116 L167 78 L178 89 L140 128 L179 168 L168 179 L128 140 L108 159 Q88 179 87.5 179 Q87 179 82 173 Z " />
<glyph glyph-name="times--large" unicode="&#xe008;" horiz-adv-x="256" d="M158 170 L127 139 L65 200 L54 189 L116 128 L54 65 L65 54 L127 116 L190 54 L201 64 L139 127 L201 190 L189 201 L158 170 Z " />
<glyph glyph-name="times--circle" unicode="&#xe009;" horiz-adv-x="256" d="M113 231 Q97 229 81.5 221 Q66 213 55 201.5 Q44 190 37.5 179 Q31 168 27 153 Q26 147 25.5 142.5 Q25 138 25 128 Q25 118 25.5 113.5 Q26 109 27 102 Q35 72 58 51 Q81 30 112 25 Q137 21 161.5 30 Q186 39 204 58 Q222 77 229 102 Q230 109 230.5 113.5 Q231 118 231 128 Q231 138 230.5 142.5 Q230 147 229 154 Q225 167 218.5 178.5 Q212 190 202 200 Q185 218 161.5 226.5 Q138 235 112 231 L113 231 Z M151 213 Q174 206 190.5 189 Q207 172 213 150 Q215 142 215.5 129 Q216 116 214 108 Q208 84 191.5 67 Q175 50 149 43 Q141 40 128 40 Q115 40 107 43 Q73 52 56 78 Q48 89 44.5 100 Q41 111 40 124 Q39 146 48.5 165.5 Q58 185 75.5 198.5 Q93 212 115 215 Q122 216 133 215.5 Q144 215 151 213 Z M82 173 L77 168 L116 128 L77 88 L88 77 L128 116 L167 78 L178 89 L140 128 L179 168 L168 179 L128 140 L108 159 Q88 179 87.5 179 Q87 179 82 173 Z " />
<glyph glyph-name="settings" unicode="&#xe010;" horiz-adv-x="256" d="M108 232 Q105 231 104 227.5 Q103 224 102 214 L101 201 L96 199 Q90 196 86 193 L81 189 L67 195 Q54 200 51.5 200 Q49 200 46 195.5 Q43 191 36 179 L35 177 Q29 167 28 163.5 Q27 160 29 157.5 Q31 155 38 149 L50 141 L50 116 L38 106 Q30 101 28.5 98.5 Q27 96 28 92.5 Q29 89 35 79 L36 77 Q43 64 46.5 60 Q50 56 52.5 56 Q55 56 66.5 61 Q78 66 79 66 Q80 66 83.5 63.5 Q87 61 93 58 Q99 55 99 54 L101 37 Q102 30 103 27.5 Q104 25 107.5 24 Q111 23 122 23 L126 23 Q146 23 148.5 24.5 Q151 26 152 29.5 Q153 33 154 42 L155 55 L160 57 Q165 59 169.5 62.5 Q174 66 175.5 66 Q177 66 188.5 61 Q200 56 202 56 Q204 56 206.5 58.5 Q209 61 218 76.5 Q227 92 227 94.5 Q227 97 224.5 99.5 Q222 102 215 107.5 Q208 113 206.5 114.5 Q205 116 205.5 118.5 Q206 121 206 131 L206 141 L218 150 Q225 155 227 157.5 Q229 160 228 163.5 Q227 167 221 177 L220 179 Q213 191 209.5 195.5 Q206 200 204 200 Q202 200 190 195 Q178 190 177 190 Q176 190 172.5 192.5 Q169 195 163 198 Q157 201 157 202 L154 229 L151 231 Q149 232 145 233 L129 233 Q110 233 108 232 Z M139 217 Q139 217 140.5 205.5 Q142 194 143 191 Q144 188 150 186 Q159 183 168 176 Q172 172 174 172 Q176 172 179 173 L200 182 L210 164 L189 147 L190 125 Q190 121 188.5 117 Q187 113 187.5 110.5 Q188 108 198 100.5 Q208 93 208 92 L205 86 L198 74 L187 79 Q175 84 173 84 Q171 84 165.5 79.5 Q160 75 150.5 70.5 Q141 66 140.5 64.5 Q140 63 139 51 L138 39 L117 39 L116 52 Q114 62 112.5 65 Q111 68 106 69 Q97 72 88 81 Q84 84 81.5 84 Q79 84 71 80 L56 74 L47 91 Q46 93 47 93 Q65 107 65.5 108.5 Q66 110 66 128 L67 147 L46 164 L56 182 L73 175 Q81 172 83 172 Q85 172 90.5 176.5 Q96 181 105.5 185.5 Q115 190 115.5 191.5 Q116 193 117 205 L118 217 L139 217 Z M116 165 Q109 162 102.5 156 Q96 150 93 143 Q91 140 91 137 L90 128 Q91 121 91 118.5 Q91 116 93.5 111.5 Q96 107 101.5 101.5 Q107 96 111.5 93.5 Q116 91 118.5 91 Q121 91 128 91 Q135 91 137.5 91 Q140 91 145 93.5 Q150 96 155 101 Q160 106 162.5 111 Q165 116 165 118.5 Q165 121 165 128 Q165 135 165 137.5 Q165 140 162.5 144.5 Q160 149 155 154.5 Q150 160 145.5 162 Q141 164 138 165 Q135 166 130 166 Q121 166 116 165 Z M137 148 Q145 145 148.5 136.5 Q152 128 148.5 119.5 Q145 111 137 108 Q131 105 124 106.5 Q117 108 113 112 Q106 118 106 127.5 Q106 137 112 143 Q116 148 123.5 149.5 Q131 151 137 148 Z " />
<glyph glyph-name="select--square" unicode="&#xe011;" horiz-adv-x="256" d="M18 238 L16 235 L16 21 L21 16 L235 16 L240 21 L240 235 L235 240 L21 240 L18 238 Z M224 128 L224 32 L32 32 L32 224 L224 224 L224 128 Z M113 184 L113 176 L164 176 L92 103 L103 92 L176 164 L176 113 L192 113 L192 192 L113 192 L113 184 Z " />
<glyph glyph-name="plus--square" unicode="&#xe012;" horiz-adv-x="256" d="M26 230 L24 227 L24 29 L29 24 L227 24 L232 29 L232 227 L227 232 L29 232 L26 230 Z M216 128 L216 40 L40 40 L40 216 L216 216 L216 128 Z M120 164 L120 136 L64 136 L64 120 L120 120 L120 64 L136 64 L136 120 L192 120 L192 136 L136 136 L136 192 L120 192 L120 164 Z " />
<glyph glyph-name="plus" unicode="&#xe013;" horiz-adv-x="256" d="M120 164 L120 136 L64 136 L64 120 L120 120 L120 64 L136 64 L136 120 L192 120 L192 136 L136 136 L136 192 L120 192 L120 164 Z " />
<glyph glyph-name="plus--large" unicode="&#xe014;" horiz-adv-x="256" d="M120 180 L120 136 L32 136 L32 120 L120 120 L120 32 L136 32 L136 120 L224 120 L224 136 L136 136 L136 224 L120 224 L120 180 Z " />
<glyph glyph-name="plus--circle" unicode="&#xe015;" horiz-adv-x="256" d="M113 231 Q97 229 81.5 221 Q66 213 55 201.5 Q44 190 37.5 179 Q31 168 27 153 Q26 147 25.5 142.5 Q25 138 25 128 Q25 118 25.5 113.5 Q26 109 27 102 Q35 72 58 51 Q81 30 112 25 Q137 21 161.5 30 Q186 39 204 58 Q222 77 229 102 Q230 109 230.5 113.5 Q231 118 231 128 Q231 138 230.5 142.5 Q230 147 229 154 Q225 167 218.5 178.5 Q212 190 202 200 Q185 218 161.5 226.5 Q138 235 112 231 L113 231 Z M151 213 Q174 206 190.5 189 Q207 172 213 150 Q215 142 215.5 129 Q216 116 214 108 Q208 84 191.5 67 Q175 50 149 43 Q141 40 128 40 Q115 40 107 43 Q73 52 56 78 Q48 89 44.5 100 Q41 111 40 124 Q39 146 48.5 165.5 Q58 185 75.5 198.5 Q93 212 115 215 Q122 216 133 215.5 Q144 215 151 213 Z M120 164 L120 136 L64 136 L64 120 L120 120 L120 64 L136 64 L136 120 L192 120 L192 136 L136 136 L136 192 L120 192 L120 164 Z " />
<glyph glyph-name="pencil--square" unicode="&#xe016;" horiz-adv-x="256" d="M26 230 L24 227 L24 121 L40 121 L40 216 L216 216 L216 40 L121 40 L121 24 L227 24 L232 29 L232 227 L227 232 L29 232 L26 230 Z M130 181 Q127 179 75 128 L24 77 L24 24 L77 24 L129 76 Q181 129 182 131.5 Q183 134 183 137.5 Q183 141 182 143.5 Q181 146 164.5 163 Q148 180 144.5 181.5 Q141 183 137 183 Q133 183 130 181 Z M155 126 L144 114 L114 143 L137 167 L167 138 L155 126 Z M118 117 L132 103 L70 40 L40 40 L40 69 L71 101 Q102 132 103 132 Q104 132 118 117 Z " />
<glyph glyph-name="pencil" unicode="&#xe017;" horiz-adv-x="256" d="M154 237 Q151 235 91 176 L32 117 L32 64 L85 64 L145 124 Q205 185 206 187.5 Q207 190 207 193.5 Q207 197 206 199.5 Q205 202 188.5 219 Q172 236 168.5 237.5 Q165 239 161 239 Q157 239 154 237 Z M179 182 L168 170 L138 199 L161 223 L191 194 L179 182 Z M142 173 L156 159 L78 80 L48 80 L48 109 L87 149 Q126 188 127 188 Q128 188 142 173 Z M16 40 L16 32 L240 32 L240 48 L16 48 L16 40 Z " />
<glyph glyph-name="minus--square" unicode="&#xe018;" horiz-adv-x="256" d="M26 230 L24 227 L24 29 L29 24 L227 24 L232 29 L232 227 L227 232 L29 232 L26 230 Z M216 128 L216 40 L40 40 L40 216 L216 216 L216 128 Z M64 128 L64 120 L192 120 L192 136 L64 136 L64 128 Z " />
<glyph glyph-name="minus" unicode="&#xe019;" horiz-adv-x="256" d="M64 128 L64 120 L192 120 L192 136 L64 136 L64 128 Z " />
<glyph glyph-name="minus--large" unicode="&#xe020;" horiz-adv-x="256" d="M32 128 L32 120 L224 120 L224 136 L32 136 L32 128 Z " />
<glyph glyph-name="minus--circle" unicode="&#xe021;" horiz-adv-x="256" d="M113 231 Q97 229 81.5 221 Q66 213 55 201.5 Q44 190 37.5 179 Q31 168 27 153 Q26 147 25.5 142.5 Q25 138 25 128 Q25 118 25.5 113.5 Q26 109 27 102 Q35 72 58 51 Q81 30 112 25 Q137 21 161.5 30 Q186 39 204 58 Q222 77 229 102 Q230 109 230.5 113.5 Q231 118 231 128 Q231 138 230.5 142.5 Q230 147 229 154 Q225 167 218.5 178.5 Q212 190 202 200 Q185 218 161.5 226.5 Q138 235 112 231 L113 231 Z M151 213 Q174 206 190.5 189 Q207 172 213 150 Q215 142 215.5 129 Q216 116 214 108 Q208 84 191.5 67 Q175 50 149 43 Q141 40 128 40 Q115 40 107 43 Q73 52 56 78 Q48 89 44.5 100 Q41 111 40 124 Q39 146 48.5 165.5 Q58 185 75.5 198.5 Q93 212 115 215 Q122 216 133 215.5 Q144 215 151 213 Z M64 128 L64 120 L192 120 L192 136 L64 136 L64 128 Z " />
<glyph glyph-name="magnifier" unicode="&#xe022;" horiz-adv-x="256" d="M91 239 Q77 237 64.5 230.5 Q52 224 42 214 Q23 195 18 169 Q13 143 23 118.5 Q33 94 56 79 Q67 71 83 67 Q91 64 104 64 Q117 64 125 67 Q141 71 153 79 L160 84 L189 56 Q218 27 219 27 Q220 27 225 33 L229 38 L172 96 L177 103 Q186 117 190 132 Q192 140 191.5 153 Q191 166 189 174 Q182 202 159 220 Q136 238 107 239 Q96 240 91 239 Z M119 222 Q127 221 136 216 Q142 213 145.5 210.5 Q149 208 154.5 202.5 Q160 197 162.5 193.5 Q165 190 168 184 Q177 166 176 148 Q175 139 173.5 133 Q172 127 168 119 Q163 109 152.5 99.5 Q142 90 132 85 Q126 83 118 81.5 Q110 80 104 80 Q98 80 90 81.5 Q82 83 76 85 Q66 90 55.5 99.5 Q45 109 40 119 Q36 127 34.5 133 Q33 139 32 148 Q31 167 40 184 Q43 190 45.5 193.5 Q48 197 53.5 202.5 Q59 208 62.5 210.5 Q66 213 72 216 Q95 227 119 222 Z " />
<glyph glyph-name="link--web-2" unicode="&#xe023;" horiz-adv-x="256" d="M161 233 L161 225 L212 225 L140 152 L151 141 L224 213 L224 161 L240 161 L240 241 L161 241 L161 233 Z M26 222 L24 219 L24 37 L29 32 L219 32 L224 37 L224 130 L208 130 L208 48 L40 48 L40 208 L129 208 L129 224 L29 224 L26 222 Z " />
<glyph glyph-name="home" unicode="&#xe024;" horiz-adv-x="256" d="M68 194 L10 148 L15 142 Q19 137 20 136.5 Q21 136 26 140 Q31 144 31.5 144 Q32 144 32 91 L32 37 L37 32 L219 32 L224 37 L224 91 Q224 144 224.5 144 Q225 144 230 140 Q235 136 236 136.5 Q237 137 241 142 L246 148 L189 194 Q132 239 129 239.5 Q126 240 116 233 L68 194 Z M169 189 L208 158 L208 48 L160 48 L160 115 L155 120 L101 120 L96 115 L96 48 L48 48 L48 158 L87 189 Q126 221 128 220.5 Q130 220 169 189 Z M144 76 L144 48 L112 48 L112 104 L144 104 L144 76 Z " />
<glyph glyph-name="folder--remove" unicode="&#xe025;" horiz-adv-x="256" d="M18 222 L16 219 L16 37 L21 32 L235 32 L240 37 L240 187 L235 192 L128 192 L119 207 Q110 222 108 223 Q106 224 64 224 L21 224 L18 222 Z M109 193 Q118 178 120 177 Q122 176 173 176 L224 176 L224 48 L32 48 L32 208 L100 208 L109 193 Z M88 112 L88 104 L168 104 L168 120 L88 120 L88 112 Z " />
<glyph glyph-name="folder" unicode="&#xe026;" horiz-adv-x="256" d="M18 222 L16 219 L16 37 L21 32 L235 32 L240 37 L240 187 L235 192 L128 192 L119 207 Q110 222 108 223 Q106 224 64 224 L21 224 L18 222 Z M109 193 Q118 178 120 177 Q122 176 173 176 L224 176 L224 48 L32 48 L32 208 L100 208 L109 193 Z " />
<glyph glyph-name="folder--add" unicode="&#xe027;" horiz-adv-x="256" d="M18 222 L16 219 L16 37 L21 32 L235 32 L240 37 L240 187 L235 192 L128 192 L119 207 Q110 222 108 223 Q106 224 64 224 L21 224 L18 222 Z M109 193 Q118 178 120 177 Q122 176 173 176 L224 176 L224 48 L32 48 L32 208 L100 208 L109 193 Z M120 136 L120 120 L88 120 L88 104 L120 104 L120 72 L136 72 L136 104 L168 104 L168 120 L136 120 L136 152 L120 152 L120 136 Z " />
<glyph glyph-name="filter" unicode="&#xe028;" horiz-adv-x="256" d="M34 222 Q33 220 32 217 L32 181 L94 110 L95 37 L99 32 L157 32 L162 37 L163 111 L224 181 L224 217 Q223 220 222 222 L219 224 L37 224 L34 222 Z M208 197 L208 187 L146 116 L146 48 L110 48 L110 116 L48 187 L48 208 L208 208 L208 197 Z " />
<glyph glyph-name="file--text" unicode="&#xe029;" horiz-adv-x="256" d="M42 238 L40 235 L40 21 L45 16 L211 16 L216 21 L216 179 L155 240 L45 240 L42 238 Z M144 199 L144 173 L149 168 L200 168 L200 32 L56 32 L56 224 L144 224 L144 199 Z M175 198 L188 184 L160 184 L160 212 L174 198 L175 198 Z M80 120 L80 112 L176 112 L176 128 L80 128 L80 120 Z M80 72 L80 64 L176 64 L176 80 L80 80 L80 72 Z " />
<glyph glyph-name="file--select" unicode="&#xe030;" horiz-adv-x="256" d="M42 238 L40 235 L40 21 L45 16 L211 16 L216 21 L216 235 L211 240 L45 240 L42 238 Z M200 128 L200 32 L56 32 L56 224 L200 224 L200 128 Z M96 184 L96 176 L140 176 L84 119 L95 108 L152 164 L152 120 L168 120 L168 192 L96 192 L96 184 Z " />
<glyph glyph-name="file" unicode="&#xe031;" horiz-adv-x="256" d="M42 238 L40 235 L40 21 L45 16 L211 16 L216 21 L216 179 L155 240 L45 240 L42 238 Z M144 199 L144 173 L149 168 L200 168 L200 32 L56 32 L56 224 L144 224 L144 199 Z M175 198 L188 184 L160 184 L160 212 L174 198 L175 198 Z " />
<glyph glyph-name="file--extend" unicode="&#xe032;" horiz-adv-x="256" d="M34 238 L32 235 L32 21 L37 16 L83 16 L86 19 Q88 21 88 24 Q88 27 86 29 Q84 31 81 32 L48 32 L48 224 L152 224 L152 173 L157 168 L219 168 L222 171 Q224 173 224 175.5 Q224 178 219 184 L163 240 L37 240 L34 238 Z M183 198 L196 184 L168 184 L168 212 L182 198 L183 198 Z M155 143 Q147 141 142.5 139 Q138 137 133 133 Q120 125 112 110.5 Q104 96 104 79.5 Q104 63 112.5 48 Q121 33 136 24.5 Q151 16 168 16 Q185 16 200 24.5 Q215 33 223.5 48 Q232 63 232 80 Q232 101 219.5 118 Q207 135 187 141 Q181 143 171 143.5 Q161 144 155 143 Z M177 127 Q191 124 202 114 Q216 99 216 80 Q216 61 201.5 46.5 Q187 32 168 32 Q149 32 134 46 Q116 65 121 90 Q124 103 134 114 Q152 132 177 127 Z M160 96 L160 76 L171 66 Q182 55 183 55 Q184 55 189 61 L193 66 L176 84 L176 116 L160 116 L160 96 Z " />
<glyph glyph-name="eye" unicode="&#xe033;" horiz-adv-x="256" d="M112 211 Q102 209 89 204 Q76 199 65 192 Q51 183 33 165 Q15 147 10 136 Q8 133 8 128.5 Q8 124 9 120 Q13 112 29 95 Q45 78 58 69 Q66 63 77.5 57 Q89 51 96 49 Q126 40 153.5 47.5 Q181 55 210 78 Q220 87 232 100.5 Q244 114 247 121 Q248 124 248 128.5 Q248 133 246 137 Q244 141 236.5 150 Q229 159 221 167 Q206 183 192 192 Q178 201 161 206 Q137 214 112 211 Z M143 194 Q151 193 157 191 Q163 189 172.5 184 Q182 179 189 174 Q200 166 216 149 Q232 132 232 128 Q232 124 216.5 107.5 Q201 91 190 83 Q172 70 154 64.5 Q136 59 119 61 Q88 65 61 87 Q50 95 37 110 Q24 125 24 128.5 Q24 132 40 149 Q56 166 67 174 Q74 179 83.5 184 Q93 189 100 191 Q121 198 143 194 Z M114 178 Q102 175 93 166.5 Q84 158 79 146 Q77 142 77 138 L77 128 L77 118 Q77 114 79 110 Q86 92 104 82 Q117 75 132 76.5 Q147 78 159 87 Q171 96 177 110 Q179 114 179 118 L179 128 L179 138 Q179 142 177 145 Q169 165 151.5 174 Q134 183 114 178 Z M143 161 Q148 158 153 153 Q158 148 160 143.5 Q162 139 162.5 136 Q163 133 163 128 Q163 123 162.5 120 Q162 117 161 113 Q155 101 143 95 Q139 94 136 93.5 Q133 93 128 93 Q123 93 120 93.5 Q117 94 113 95 Q101 101 95 113 Q94 117 93.5 120 Q93 123 93 128 Q93 133 93.5 136 Q94 139 95 143 Q99 150 105.5 155.5 Q112 161 120 163 Q124 164 131 163.5 Q138 163 143 161 Z " />
<glyph glyph-name="&amp;#xe034;" unicode="&#xe034;" horiz-adv-x="256" d="M111 227 Q95 223 79.5 214 Q64 205 53 191 L47 183 L46 212 L30 212 L30 156 L86 156 L86 172 L59 172 L63 178 Q67 184 74.5 190.5 Q82 197 88 201 Q109 213 134 212 Q163 210 184 189.5 Q205 169 208 139 L208 132 L224 132 L224 136 Q224 141 222 150 Q220 159 218 165 Q211 183 196.5 198.5 Q182 214 164 221 Q152 226 138 227.5 Q124 229 111 227 Z M31 126 Q33 92 55 67.5 Q77 43 111 38 Q119 36 125.5 36 Q132 36 141 37 Q163 41 181 53 Q186 57 193.5 64.5 Q201 72 204 76 L208 81 L208 52 L224 52 L224 108 L168 108 L168 92 L195 92 L193 89 Q191 85 183.5 77.5 Q176 70 171 66 Q153 53 130 52 Q107 51 87 62 Q80 66 72 73.5 Q64 81 59 88.5 Q54 96 50.5 106.5 Q47 117 47 125 Q47 130 46 131 Q45 132 38 132 L30 132 L31 126 Z " />
<glyph glyph-name="&amp;#xe048;" unicode="&#xe048;" horiz-adv-x="256" d="M111 227 Q95 223 79.5 214 Q64 205 53 191 L47 183 L46 212 L30 212 L30 156 L86 156 L86 172 L59 172 L63 178 Q67 184 74.5 190.5 Q82 197 88 201 Q109 213 134 212 Q163 210 184 189.5 Q205 169 208 139 L208 132 L224 132 L224 136 Q224 141 222 150 Q220 159 218 165 Q211 183 196.5 198.5 Q182 214 164 221 Q152 226 138 227.5 Q124 229 111 227 Z M31 126 Q33 92 55 67.5 Q77 43 111 38 Q119 36 125.5 36 Q132 36 141 37 Q163 41 181 53 Q186 57 193.5 64.5 Q201 72 204 76 L208 81 L208 52 L224 52 L224 108 L168 108 L168 92 L195 92 L193 89 Q191 85 183.5 77.5 Q176 70 171 66 Q153 53 130 52 Q107 51 87 62 Q80 66 72 73.5 Q64 81 59 88.5 Q54 96 50.5 106.5 Q47 117 47 125 Q47 130 46 131 Q45 132 38 132 L30 132 L31 126 Z " />
<glyph glyph-name="exclamation--triangle" unicode="&#xe035;" horiz-adv-x="256" d="M123 238 Q121 236 68.5 135 Q16 34 16 31.5 Q16 29 18 27 L21 24 L215 24 Q234 25 236 26 Q238 27 239 29 Q240 31 239 34 L135 236 Q133 239 129.5 239.5 Q126 240 123 238 Z M174 127 L219 40 L37 40 L82 127 Q128 214 128 214 Q128 214 174 127 Z M120 140 L120 104 L136 104 L136 176 L120 176 L120 140 Z M122 78 Q116 75 116 68 Q116 61 123 58 Q126 56 128 56 Q130 56 133 57.5 Q136 59 138 62 Q140 65 140 68 Q140 71 138 74 Q136 77 134 78 Q128 81 122 78 Z " />
<glyph glyph-name="exclamation--square" unicode="&#xe036;" horiz-adv-x="256" d="M26 230 L24 227 L24 29 L29 24 L227 24 L232 29 L232 227 L227 232 L29 232 L26 230 Z M216 128 L216 40 L40 40 L40 216 L216 216 L216 128 Z M120 148 L120 104 L136 104 L136 192 L120 192 L120 148 Z M122 78 Q116 75 116 68 Q116 61 123 58 Q126 56 128 56 Q130 56 133 57.5 Q136 59 138 62 Q140 65 140 68 Q140 71 138 74 Q136 77 134 78 Q128 81 122 78 Z " />
<glyph glyph-name="exclamation--circle" unicode="&#xe037;" horiz-adv-x="256" d="M112 247 Q86 243 64.5 229.5 Q43 216 28 194 Q10 167 8 136 Q6 105 20 75 Q31 53 50 37 Q69 21 93 14 Q123 4 154.5 11.5 Q186 19 210 41 Q228 58 238 81.5 Q248 105 248 130 Q248 155 237 178 Q225 203 204 220.5 Q183 238 155 245 Q147 247 133.5 247.5 Q120 248 112 247 Z M143 231 Q177 226 202 200 Q212 190 218.5 178.5 Q225 167 229 154 Q230 147 230.5 142.5 Q231 138 231 128 Q231 118 230.5 113.5 Q230 109 229 103 Q226 94 221 83.5 Q216 73 211 66 Q192 41 164 30.5 Q136 20 106.5 26.5 Q77 33 55 55 Q35 74 27 103 Q26 109 25.5 113.5 Q25 118 25 128 Q25 138 25 142.5 Q25 147 27 153 Q32 169 38 179.5 Q44 190 55 202 Q72 219 95 226.5 Q118 234 143 231 Z M120 148 L120 104 L136 104 L136 192 L120 192 L120 148 Z M122 78 Q116 75 116 68 Q116 61 123 58 Q126 56 128 56 Q130 56 133 57.5 Q136 59 138 62 Q140 65 140 68 Q140 71 138 74 Q136 77 134 78 Q128 81 122 78 Z " />
<glyph glyph-name="data--upload" unicode="&#xe038;" horiz-adv-x="256" d="M94 210 L61 176 L72 165 L120 212 L120 64 L136 64 L136 212 L184 165 L195 176 L162 210 Q129 243 128 243 Q127 243 94 210 Z M24 36 L24 16 L232 16 L232 56 L216 56 L216 32 L40 32 L40 56 L24 56 L24 36 Z " />
<glyph glyph-name="data--download" unicode="&#xe039;" horiz-adv-x="256" d="M120 166 L120 92 L72 139 L61 128 L128 61 L195 128 L184 139 L136 92 L136 240 L120 240 L120 166 Z M24 36 L24 16 L232 16 L232 56 L216 56 L216 32 L40 32 L40 56 L24 56 L24 36 Z " />
<glyph glyph-name="ctrl--top" unicode="&#xe040;" horiz-adv-x="256" d="M89 137 L51 98 L55 93 Q60 87 61 87 Q62 87 95 120 L128 152 L161 120 Q194 87 195 87 Q196 87 201 93 L205 98 L167 137 Q129 175 128 175 Q127 175 89 137 Z " />
<glyph glyph-name="ctrl--right" unicode="&#xe041;" horiz-adv-x="256" d="M91 199 L87 194 L152 128 L87 62 L91 57 Q96 51 97.5 51 Q99 51 137 90 L175 128 L137 167 Q99 205 97.5 205 Q96 205 91 199 Z " />
<glyph glyph-name="ctrl--down" unicode="&#xe042;" horiz-adv-x="256" d="M55 163 L51 158 L128 81 L205 158 L201 163 Q196 169 195 169 Q194 169 161 136 L128 104 L95 136 Q62 169 61 169 Q60 169 55 163 Z " />
<glyph glyph-name="ctrl--left" unicode="&#xe043;" horiz-adv-x="256" d="M119 167 L81 128 L119 90 Q157 51 158.5 51 Q160 51 165 57 L169 62 L104 128 L169 194 L165 199 Q160 205 158.5 205 Q157 205 119 167 Z " />
<glyph glyph-name="cloud--upload" unicode="&#xe044;" horiz-adv-x="256" d="M113 238 Q93 234 77 218.5 Q61 203 58 184 Q57 177 56 176 Q55 175 50 173 Q35 167 26 155 Q17 143 16 128 Q15 113 22 100 Q28 88 40.5 80 Q53 72 65 72 L68 72 L68 88 L62 89 Q44 93 36 109 Q34 113 33.5 115.5 Q33 118 33 123.5 Q33 129 33.5 132 Q34 135 35 138 Q39 147 46.5 152.5 Q54 158 62 159 L64 160 Q70 160 71 161 Q72 162 72 166 L72 167 Q72 184 81 198 Q90 212 105 219 Q120 226 136 223 Q155 220 170 204 Q176 198 180 187.5 Q184 177 184 167 Q184 162 185 161 Q186 160 189.5 160 Q193 160 199 158 Q213 154 220 139 Q222 135 222.5 132.5 Q223 130 223.5 124 Q224 118 223 115.5 Q222 113 220 109 Q212 93 194 89 L188 88 L188 72 L191 72 Q199 72 208.5 76.5 Q218 81 225 88 Q237 100 239.5 116.5 Q242 133 234 148 Q226 163 210 171 L201 175 Q199 176 199 181 Q196 201 178 219 Q166 231 149 237 Q142 239 131 239.5 Q120 240 113 238 Z M109 121 L91 102 L95 97 Q100 91 101 91 Q102 91 111 100 L120 108 L120 16 L136 16 L136 108 L145 100 Q154 91 155 91 Q156 91 161 97 L165 102 L147 121 Q129 139 128 139 Q127 139 109 121 Z " />
<glyph glyph-name="cloud--download" unicode="&#xe045;" horiz-adv-x="256" d="M113 238 Q93 234 77 218.5 Q61 203 58 184 Q57 177 56 176 Q55 175 50 173 Q35 167 26 155 Q17 143 16 128 Q15 113 22 100 Q28 88 40.5 80 Q53 72 65 72 L68 72 L68 88 L62 89 Q44 93 36 109 Q34 113 33.5 115.5 Q33 118 33 123.5 Q33 129 33.5 132 Q34 135 35 138 Q39 147 46.5 152.5 Q54 158 62 159 L64 160 Q70 160 71 161 Q72 162 72 166 L72 167 Q72 184 81 198 Q90 212 105 219 Q120 226 136 223 Q155 220 170 204 Q176 198 180 187.5 Q184 177 184 167 Q184 162 185 161 Q186 160 189.5 160 Q193 160 199 158 Q213 154 220 139 Q222 135 222.5 132.5 Q223 130 223.5 124 Q224 118 223 115.5 Q222 113 220 109 Q212 93 194 89 L188 88 L188 72 L191 72 Q199 72 208.5 76.5 Q218 81 225 88 Q237 100 239.5 116.5 Q242 133 234 148 Q226 163 210 171 L201 175 Q199 176 199 181 Q196 201 178 219 Q166 231 149 237 Q142 239 131 239.5 Q120 240 113 238 Z M120 90 L120 44 L111 52 Q102 61 101 61 Q100 61 95 55 L91 50 L128 13 L165 50 L161 55 Q156 61 155 61 Q154 61 145 52 L136 44 L136 136 L120 136 L120 90 Z " />
<glyph glyph-name="circle--time" unicode="&#xe046;" horiz-adv-x="256" d="M113 239 Q95 236 78.5 228 Q62 220 49 207 Q23 181 17.5 145 Q12 109 29 76 Q43 49 68 33.5 Q93 18 122.5 16.5 Q152 15 179 29 Q209 44 225 71.5 Q241 99 240 133 Q239 158 227.5 180 Q216 202 196 217 Q178 231 156 236.5 Q134 242 112 239 L113 239 Z M155 89 L190 54 L182 49 Q169 40 156.5 36.5 Q144 33 128 33 Q114 33 106 35 Q79 41 60.5 60 Q42 79 35 105 Q32 114 32 128 Q32 142 35 151 Q42 178 61 197 Q83 217 111 222 L120 224 L120 125 L155 89 Z " />
<glyph glyph-name="circle" unicode="&#xe047;" horiz-adv-x="256" d="M113 239 Q95 236 78.5 228 Q62 220 49 207 Q23 181 17.5 145 Q12 109 29 76 Q41 52 63 36.5 Q85 21 111.5 17 Q138 13 163 21.5 Q188 30 207 49 Q226 68 234 92.5 Q242 117 238.5 143 Q235 169 220 191 Q215 199 206.5 207.5 Q198 216 190 221 Q173 232 152.5 237 Q132 242 113 239 Z M144 222 Q151 221 155 220 Q159 219 167 216 Q182 209 195.5 195.5 Q209 182 216 166 Q220 156 221.5 148 Q223 140 223 128 Q223 118 223 114 Q223 110 221 104 Q214 78 195 59.5 Q176 41 150 35 Q141 32 128 32 Q115 32 106 35 Q79 41 60.5 60 Q42 79 35 105 Q32 114 32 128 Q32 142 35 151 Q42 176 59 194 Q76 212 100 220 Q110 223 121.5 223.5 Q133 224 144 222 Z " />
<glyph glyph-name="check--circle" unicode="&#xe049;" horiz-adv-x="256" d="M113 239 Q95 236 78.5 228 Q62 220 49 207 Q23 181 17.5 145 Q12 109 29 76 Q41 52 63 36.5 Q85 21 111.5 17 Q138 13 163 21.5 Q188 30 207 49 Q226 68 234 92.5 Q242 117 238.5 143 Q235 169 220 191 Q215 199 206.5 207.5 Q198 216 190 221 Q173 232 152.5 237 Q132 242 113 239 Z M144 222 Q151 221 155 220 Q159 219 167 216 Q182 209 195.5 195.5 Q209 182 216 166 Q220 156 221.5 148 Q223 140 223 128 Q223 118 223 114 Q223 110 221 104 Q214 78 195 59.5 Q176 41 150 35 Q141 32 128 32 Q115 32 106 35 Q79 41 60.5 60 Q42 79 35 105 Q32 114 32 128 Q32 142 35 151 Q42 176 59 194 Q76 212 100 220 Q110 223 121.5 223.5 Q133 224 144 222 Z M145 136 L112 104 L95 120 Q78 137 77 137 Q76 137 71 131 L67 126 L112 81 L189 158 L185 163 Q180 169 178.5 169 Q177 169 145 136 Z " />
<glyph glyph-name="calendar" unicode="&#xe050;" horiz-adv-x="256" d="M64 240 L64 232 L49 232 Q37 232 33.5 230.5 Q30 229 27 225 Q25 223 25 218.5 Q25 214 25 194 L25 62 Q25 42 25 37.5 Q25 33 27 31 Q29 29 31 27 Q33 25 37.5 25 Q42 25 62 25 L194 25 Q214 25 218.5 25 Q223 25 225 27 Q227 29 229 31 Q231 33 231 37.5 Q231 42 231 62 L231 194 Q231 214 231 218.5 Q231 223 229 225 Q226 229 222.5 230.5 Q219 232 207 232 L192 232 L192 248 L176 248 L176 232 L80 232 L80 248 L64 248 L64 240 Z M64 208 L64 200 L80 200 L80 216 L176 216 L176 200 L192 200 L192 216 L216 216 L216 184 L40 184 L40 216 L64 216 L64 208 Z M216 104 L216 40 L40 40 L40 168 L216 168 L216 104 Z " />
<glyph glyph-name="arrow--top" unicode="&#xe051;" horiz-adv-x="256" d="M93 197 L59 162 L63 157 Q68 151 69 151 Q70 151 95 176 L120 200 L120 28 L136 28 L136 200 L161 176 Q186 151 187 151 Q188 151 193 157 L197 162 L163 197 Q129 231 128 231 Q127 231 93 197 Z " />
<glyph glyph-name="arrow--right" unicode="&#xe052;" horiz-adv-x="256" d="M155 191 L151 186 L200 136 L28 136 L28 120 L200 120 L151 70 L155 65 Q160 59 161.5 59 Q163 59 197 94 L231 128 L197 163 Q163 197 161.5 197 Q160 197 155 191 Z " />
<glyph glyph-name="arrow--down" unicode="&#xe053;" horiz-adv-x="256" d="M120 142 L120 56 L95 80 Q70 105 69 105 Q68 105 63 99 L59 94 L128 25 L197 94 L193 99 Q188 105 187 105 Q186 105 161 80 L136 56 L136 228 L120 228 L120 142 Z " />
<glyph glyph-name="arrow--left" unicode="&#xe054;" horiz-adv-x="256" d="M59 163 L25 128 L59 94 Q93 59 94.5 59 Q96 59 101 65 L105 70 L56 120 L228 120 L228 136 L56 136 L105 186 L101 191 Q96 197 94.5 197 Q93 197 59 163 Z " />
<glyph glyph-name="times--square--solid" unicode="&#xe056;" horiz-adv-x="256" d="M224 232 L32 232 Q28 232 26 230 Q24 228 24 224 L24 32 Q24 28 26 26 Q28 24 32 24 L224 24 Q228 24 230 26 Q232 28 232 32 L232 224 Q232 228 230 230 Q228 232 224 232 Z M179 88 L168 77 L128 117 L88 77 L77 88 L117 128 L77 168 L88 179 L128 139 L168 179 L179 168 L139 128 L179 88 Z " />
<glyph glyph-name="times--circle--solid" unicode="&#xe057;" horiz-adv-x="256" d="M128 232 Q100 232 76 218 Q52 204 38 180 Q24 156 24 128 Q24 100 38 76 Q52 52 76 38 Q100 24 128 24 Q156 24 180 38 Q204 52 218 76 Q232 100 232 128 Q232 156 218 180 Q204 204 180 218 Q156 232 128 232 Z M178 89 L167 78 L128 117 L88 77 L77 88 L117 128 L77 168 L88 179 L128 139 L168 179 L179 168 L139 128 L178 89 Z " />
<glyph glyph-name="overflow-menu--vertical" unicode="&#xe058;" horiz-adv-x="256" d="M121 207 Q114 203 112.5 195 Q111 187 116.5 181 Q122 175 129 176 Q136 177 140.5 182.5 Q145 188 143.5 195 Q142 202 135 206 Q128 210 121 207 Z M121 143 Q114 139 112.5 131 Q111 123 116.5 117 Q122 111 129 112 Q136 113 140.5 118.5 Q145 124 143.5 131 Q142 138 135 142 Q128 146 121 143 Z M121 79 Q114 75 112.5 67 Q111 59 116.5 53 Q122 47 129 48 Q136 49 140.5 54.5 Q145 60 143.5 67 Q142 74 135 78 Q128 82 121 79 Z " />
<glyph glyph-name="overflow-menu--horizontal" unicode="&#xe059;" horiz-adv-x="256" d="M57 143 Q50 139 48.5 131 Q47 123 52.5 117 Q58 111 65 112 Q72 113 76.5 118.5 Q81 124 79.5 131 Q78 138 71 142 Q64 146 57 143 Z M121 143 Q114 139 112.5 131 Q111 123 116.5 117 Q122 111 129 112 Q136 113 140.5 118.5 Q145 124 143.5 131 Q142 138 135 142 Q128 146 121 143 Z M185 143 Q178 139 176.5 131 Q175 123 180.5 117 Q186 111 193 112 Q200 113 204.5 118.5 Q209 124 207.5 131 Q206 138 199 142 Q192 146 185 143 Z " />
<glyph glyph-name="minus--square--solid" unicode="&#xe060;" horiz-adv-x="256" d="M224 232 L32 232 Q28 232 26 230 Q24 228 24 224 L24 32 Q24 28 26 26 Q28 24 32 24 L224 24 Q228 24 230 26 Q232 28 232 32 L232 224 Q232 228 230 230 Q228 232 224 232 Z M192 120 L64 120 L64 136 L192 136 L192 120 Z " />
<glyph glyph-name="minus--circle--solid" unicode="&#xe061;" horiz-adv-x="256" d="M128 232 Q100 232 76 218 Q52 204 38 180 Q24 156 24 128 Q24 100 38 76 Q52 52 76 38 Q100 24 128 24 Q156 24 180 38 Q204 52 218 76 Q232 100 232 128 Q232 156 218 180 Q204 204 180 218 Q156 232 128 232 Z M192 120 L64 120 L64 136 L192 136 L192 120 Z " />
<glyph glyph-name="folder--add--solid" unicode="&#xe062;" horiz-adv-x="256" d="M232 192 L129 192 L111 220 Q110 222 108 223 Q106 224 104 224 L24 224 Q20 224 18 222 Q16 220 16 216 L16 40 Q16 36 18 34 Q20 32 24 32 L232 32 Q236 32 238 34 Q240 36 240 40 L240 184 Q240 188 238 190 Q236 192 232 192 Z M168 104 L136 104 L136 72 L120 72 L120 104 L88 104 L88 120 L120 120 L120 152 L136 152 L136 120 L168 120 L168 104 Z " />
<glyph glyph-name="filter--solid" unicode="&#xe063;" horiz-adv-x="256" d="M154 32 L102 32 Q99 32 96.5 34 Q94 36 94 40 L94 110 L34 178 Q32 182 32 184 L32 216 Q32 220 34 222 Q36 224 40 224 L216 224 Q220 224 222 222 Q224 220 224 216 L224 184 Q224 182 222 178 L162 110 L162 40 Q162 36 159.5 34 Q157 32 154 32 Z " />
<glyph glyph-name="eye--solid" unicode="&#xe064;" horiz-adv-x="256" d="M128 164 Q113 164 102.5 153.5 Q92 143 92 128 Q92 113 102.5 102.5 Q113 92 128 92 Q143 92 153.5 102.5 Q164 113 164 128 Q164 143 153.5 153.5 Q143 164 128 164 Z M245 139 Q226 165 203 184 Q167 212 128 212 Q89 212 53 184 Q30 166 10 138 Q7 134 7 128 Q7 122 10 118 L10 117 Q29 91 52 72 Q89 44 128 44 Q167 44 204 74 Q226 92 245 118 Q248 122 248 128 Q248 134 245 139 Z M128 76 Q106 76 91 91 Q76 106 76 128 Q76 150 91 165 Q106 180 128 180 Q150 180 165 165 Q180 150 180 128 Q180 106 165 91 Q150 76 128 76 Z " />
<glyph glyph-name="exclamation--triangle--solid" unicode="&#xe065;" horiz-adv-x="256" d="M239 36 L135 236 Q133 240 128 240 Q123 240 121 236 L17 36 Q15 33 17 28 Q18 26 20 25 Q22 24 24 24 L232 24 Q234 24 236 25 Q238 26 239 28 Q241 32 239 36 Z M120 176 L136 176 L136 104 L120 104 L120 176 Z M128 56 Q123 56 119.5 59.5 Q116 63 116 68 Q116 73 119.5 76.5 Q123 80 128 80 Q133 80 136.5 76.5 Q140 73 140 68 Q140 63 136.5 59.5 Q133 56 128 56 Z " />
<glyph glyph-name="exclamation--square--solid" unicode="&#xe066;" horiz-adv-x="256" d="M224 232 L32 232 Q28 232 26 230 Q24 228 24 224 L24 32 Q24 28 26 26 Q28 24 32 24 L224 24 Q228 24 230 26 Q232 28 232 32 L232 224 Q232 228 230 230 Q228 232 224 232 Z M120 192 L136 192 L136 104 L120 104 L120 192 Z M128 56 Q123 56 119.5 59.5 Q116 63 116 68 Q116 73 119.5 76.5 Q123 80 128 80 Q133 80 136.5 76.5 Q140 73 140 68 Q140 63 136.5 59.5 Q133 56 128 56 Z " />
<glyph glyph-name="exclamation--circle--solid" unicode="&#xe067;" horiz-adv-x="256" d="M128 248 Q95 248 67.5 232 Q40 216 24 188.5 Q8 161 8 128 Q8 95 24 67.5 Q40 40 67.5 24 Q95 8 128 8 Q161 8 188.5 24 Q216 40 232 67.5 Q248 95 248 128 Q248 161 232 188.5 Q216 216 188.5 232 Q161 248 128 248 Z M120 192 L136 192 L136 104 L120 104 L120 192 Z M128 56 Q123 56 119.5 59.5 Q116 63 116 68 Q116 73 119.5 76.5 Q123 80 128 80 Q133 80 136.5 76.5 Q140 73 140 68 Q140 63 136.5 59.5 Q133 56 128 56 Z " />
<glyph glyph-name="&amp;#xe068;" unicode="&#xe068;" horiz-adv-x="256" d="M128 240 Q78 240 26 223 Q26 183 28 164 Q31 131 39 107 Q49 78 69 56 Q92 32 128 16 Q164 32 187 56 Q207 78 217 107 Q225 131 228 164 Q230 183 230 223 Q178 240 128 240 Z M148 118 L148 71 L107 71 L107 118 L61 118 L61 159 L108 159 L108 206 L149 206 L149 159 L196 159 L196 118 L148 118 Z " />
<glyph glyph-name="&amp;#xe076;" unicode="&#xe076;" horiz-adv-x="256" d="M128 240 Q78 240 26 223 Q26 183 28 164 Q31 131 39 107 Q49 78 69 56 Q92 32 128 16 Q164 32 187 56 Q207 78 217 107 Q225 131 228 164 Q230 183 230 223 Q178 240 128 240 Z M148 118 L148 71 L107 71 L107 118 L61 118 L61 159 L108 159 L108 206 L149 206 L149 159 L196 159 L196 118 L148 118 Z " />
<glyph glyph-name="circle--solid" unicode="&#xe069;" horiz-adv-x="256" d="M113 239 Q95 236 78.5 228 Q62 220 49 207 Q23 181 17.5 145 Q12 109 29 76 Q41 52 63 36.5 Q85 21 111.5 17 Q138 13 163 21.5 Q188 30 207 49 Q226 68 234 92.5 Q242 117 238.5 143 Q235 169 220 191 Q215 199 206.5 207.5 Q198 216 190 221 Q173 232 152.5 237 Q132 242 113 239 Z " />
<glyph glyph-name="globe" unicode="&#xe070;" horiz-adv-x="256" d="M113 239 Q95 236 78.5 228 Q62 220 49 207 Q23 181 17.5 145 Q12 109 29 76 Q41 52 63 36.5 Q85 21 111.5 17 Q138 13 163 21.5 Q188 30 207 49 Q226 68 234 92.5 Q242 117 238.5 143 Q235 169 220 191 Q215 199 206.5 207.5 Q198 216 190 221 Q173 232 152.5 237 Q132 242 113 239 Z M135 220 Q145 206 151 185 Q157 164 160 143 L160 136 L98 136 L98 144 Q100 163 105.5 182 Q111 201 120 216 L124 224 L129 224 Q132 224 133 223.5 Q134 223 135 220 Z M104 221 Q104 220 100 211 Q86 183 83 148 L82 136 L32 136 L33 140 Q36 165 51.5 185.5 Q67 206 90 216 Q104 222 104 221 Z M167 216 Q189 206 204.5 186 Q220 166 223 141 L224 136 L200 136 Q176 136 176 137 Q176 141 174 154.5 Q172 168 171 173 Q169 182 165 194 Q161 206 157 212 L154 220 Q154 221 167 216 Z M83 108 Q86 73 100 45 L104 35 Q104 35 99 37 L89 40 Q67 50 51.5 70.5 Q36 91 33 116 L32 120 L82 120 L83 108 Z M160 119 Q160 115 158.5 104.5 Q157 94 155 87 Q152 74 146.5 59.5 Q141 45 136 36 Q134 33 133 32.5 Q132 32 129 32 L124 32 L120 39 Q112 54 106 73.5 Q100 93 98 112 L98 120 L129 120 Q160 120 160 119 Z M223 116 Q220 96 209 77.5 Q198 59 182 49 Q174 43 164 39 Q154 35 154 36 Q154 37 156.5 41 Q159 45 163.5 57.5 Q168 70 170 79 Q173 91 175 106 L176 120 L224 120 L223 116 Z " />
<glyph glyph-name="plus--circle--solid" unicode="&#xe071;" horiz-adv-x="256" d="M128 232 Q100 232 76 218 Q52 204 38 180 Q24 156 24 128 Q24 100 38 76 Q52 52 76 38 Q100 24 128 24 Q156 24 180 38 Q204 52 218 76 Q232 100 232 128 Q232 156 218 180 Q204 204 180 218 Q156 232 128 232 Z M192 120 L136 120 L136 64 L120 64 L120 120 L64 120 L64 136 L120 136 L120 192 L136 192 L136 136 L192 136 L192 120 Z " />
<glyph glyph-name="select--square--solid" unicode="&#xe072;" horiz-adv-x="256" d="M232 240 L24 240 Q20 240 18 238 Q16 236 16 232 L16 24 Q16 20 18 18 Q20 16 24 16 L232 16 Q236 16 238 18 Q240 20 240 24 L240 232 Q240 236 238 238 Q236 240 232 240 Z M192 113 L176 113 L176 165 L103 92 L92 103 L165 176 L113 176 L113 192 L192 192 L192 113 Z " />
<glyph glyph-name="plus--square--solid" unicode="&#xe073;" horiz-adv-x="256" d="M224 232 L32 232 Q28 232 26 230 Q24 228 24 224 L24 32 Q24 28 26 26 Q28 24 32 24 L224 24 Q228 24 230 26 Q232 28 232 32 L232 224 Q232 228 230 230 Q228 232 224 232 Z M192 120 L136 120 L136 64 L120 64 L120 120 L64 120 L64 136 L120 136 L120 192 L136 192 L136 136 L192 136 L192 120 Z " />
<glyph glyph-name="circle--radio" unicode="&#xe074;" horiz-adv-x="256" d="M128 240 Q98 240 72 225 Q46 210 31 184 Q16 158 16 128 Q16 98 31 72 Q46 46 72 31 Q98 16 128 16 Q158 16 184 31 Q210 46 225 72 Q240 98 240 128 Q240 158 225 184 Q210 210 184 225 Q158 240 128 240 Z M128 32 Q102 32 80 45 Q58 58 45 80 Q32 102 32 128 Q32 154 45 176 Q58 198 80 211 Q102 224 128 224 Q154 224 176 211 Q198 198 211 176 Q224 154 224 128 Q224 102 211 80 Q198 58 176 45 Q154 32 128 32 Z M128 208 Q106 208 88 197 Q70 186 59 168 Q48 150 48 128 Q48 106 59 88 Q70 70 88 59 Q106 48 128 48 Q150 48 168 59 Q186 70 197 88 Q208 106 208 128 Q208 150 197 168 Q186 186 168 197 Q150 208 128 208 Z " />
<glyph glyph-name="checkmark" unicode="&#xe075;" horiz-adv-x="256" d="M155 146 L96 88 L69 114 Q42 141 41 141 Q40 141 35 135 L31 130 L96 65 L225 194 L221 199 Q216 205 214.5 205 Q213 205 155 146 Z " />
<glyph glyph-name="check--circle--solid" unicode="&#xe077;" horiz-adv-x="256" d="M128 240 Q98 240 72 225 Q46 210 31 184 Q16 158 16 128 Q16 98 31 72 Q46 46 72 31 Q98 16 128 16 Q158 16 184 31 Q210 46 225 72 Q240 98 240 128 Q240 158 225 184 Q210 210 184 225 Q158 240 128 240 Z M112 81 L66 126 L78 138 L112 103 L178 170 L190 158 L112 81 Z " />
<glyph glyph-name="menu" unicode="&#xe078;" horiz-adv-x="256" d="M32 200 L32 192 L224 192 L224 208 L32 208 L32 200 Z M32 152 L32 144 L224 144 L224 160 L32 160 L32 152 Z M32 104 L32 96 L224 96 L224 112 L32 112 L32 104 Z M32 56 L32 48 L224 48 L224 64 L32 64 L32 56 Z " />
<glyph glyph-name="box" unicode="&#xe080;" horiz-adv-x="256" d="M25 222 L22 220 L22 164 L25 162 Q27 160 33 160 L38 160 L38 28 L41 26 Q42 25 46.5 24.5 Q51 24 69 24 L213 24 L218 29 L218 160 L224 160 Q227 160 228.5 160.5 Q230 161 232 162 L234 165 L234 220 L231 222 Q230 223 225 223.5 Q220 224 199 224 L57 224 Q36 224 31 223.5 Q26 223 25 222 Z M218 192 L218 176 L38 176 L38 208 L218 208 L218 192 Z M202 100 L202 40 L54 40 L54 160 L202 160 L202 100 Z M89 134 L86 132 L86 92 L89 90 Q91 89 96 88 L165 88 L168 90 Q169 92 170 95 L170 132 L167 134 Q165 135 160 136 L96 136 Q91 135 89 134 Z M154 112 L154 104 L102 104 L102 120 L154 120 L154 112 Z " />
<glyph glyph-name="link" unicode="&#xe081;" horiz-adv-x="256" d="M190 216 Q184 214 180 212 Q176 210 171.5 206.5 Q167 203 167 202 Q167 201 172 196 L176 193 Q178 192 179 193 L187 197 Q200 203 212.5 198 Q225 193 230.5 180.5 Q236 168 230 156 Q228 152 221.5 144.5 Q215 137 191 114 L161 84 Q153 77 150 76 Q139 70 128 73 Q114 78 107.5 91 Q101 104 107 117 Q109 122 120 133 L130 144 L119 156 L108 144 Q98 134 94 127 Q90 120 89 112 Q85 88 101.5 71.5 Q118 55 140 56 Q154 57 165 65 Q171 70 205 105 Q229 129 235 135.5 Q241 142 243 147 Q251 162 248 177 Q245 192 234 202.5 Q223 213 210 216 Q204 217 200 217 Q196 217 190 216 Z M109 192 Q103 190 98 187.5 Q93 185 84 176 L54 147 Q28 121 21.5 113.5 Q15 106 12 101 Q2 81 13 59 Q16 53 21.5 47 Q27 41 33 38 Q45 31 60 32.5 Q75 34 86 43 L89 46 L85 51 Q80 57 79 57 Q78 57 73.5 54 Q69 51 63 49.5 Q57 48 53 48 Q42 50 34.5 57 Q27 64 24.5 74 Q22 84 26 93 Q28 97 34.5 104.5 Q41 112 64.5 135.5 Q88 159 95.5 165.5 Q103 172 107 174 Q118 179 131 174 Q144 169 149 157 Q151 153 151 144.5 Q151 136 148.5 131 Q146 126 136 116 L126 105 L137 94 L148 105 Q158 115 162 121.5 Q166 128 167 137 Q170 156 159 172 Q148 188 129 192 Q123 193 119 193 Q115 193 109 192 Z " />
<glyph glyph-name="save" unicode="&#xe082;" horiz-adv-x="256" d="M34 222 L32 219 L32 37 L37 32 L219 32 L224 37 L224 179 L179 224 L37 224 L34 222 Z M80 187 Q80 171 80.5 168 Q81 165 82 163 L85 160 L171 160 L174 163 Q175 165 176 167 L176 204 L208 173 L208 48 L176 48 L176 123 L171 128 L85 128 L80 123 L80 48 L48 48 L48 208 L80 208 L80 187 Z M160 192 L160 176 L96 176 L96 208 L160 208 L160 192 Z M160 80 L160 48 L96 48 L96 112 L160 112 L160 80 Z " />
<glyph glyph-name="cube" unicode="&#xe083;" horiz-adv-x="256" d="M76 219 Q27 190 25.5 188.5 Q24 187 24 128.5 Q24 70 25 68 Q26 66 76 37 Q126 8 128 8 Q130 8 180 37 Q230 66 231 68 Q232 70 232 128 Q232 186 231 188 Q230 190 180 219 Q130 248 128 248 Q126 248 76 219 Z M168 207 Q207 185 207 184 Q207 183 168 161 Q129 139 128 139 Q127 139 88 161 Q49 183 49 184 Q49 185 88 207.5 Q127 230 128 230 Q129 230 168 207 Z M81 146 L120 123 L120 30 L40 77 L40 123 Q40 169 41 169 Q42 169 80 146 L81 146 Z M216 123 L216 77 L136 30 L137 123 L176 146 Q214 169 215 169 Q216 169 216 123 Z " />
<glyph glyph-name="delivery" unicode="&#xe084;" horiz-adv-x="256" d="M16 200 L16 192 L168 192 L168 92 L165 90 Q162 88 158.5 83 Q155 78 154 75 L153 72 L116 72 Q80 72 79.5 70.5 Q79 69 79 73 Q77 79 72 85 Q67 91 60 94 Q55 96 47.5 95.5 Q40 95 35 93 Q24 88 19 77 Q16 72 16 64 Q16 56 19 51 Q24 40 34.5 35 Q45 30 56.5 33 Q68 36 74 46 Q78 52 78.5 55.5 Q79 59 79.5 57.5 Q80 56 116 56 L153 56 L155 51 Q157 46 161.5 41.5 Q166 37 171 35 Q178 31 187 32 Q196 33 202 38 Q206 41 209.5 45.5 Q213 50 213.5 52.5 Q214 55 216 55 L228 56 Q235 56 237 57.5 Q239 59 239.5 64 Q240 69 240 85 L240 122 L227 151 Q215 180 213.5 181.5 Q212 183 209 184 L184 184 L184 202 Q183 204 182 206 L179 208 L16 208 L16 200 Z M16 160 L16 152 L96 152 L96 168 L16 168 L16 160 Z M211 148 L220 128 L184 128 L184 168 L203 168 L211 148 Z M16 120 L16 112 L96 112 L96 128 L16 128 L16 120 Z M224 92 L224 72 L219 72 Q215 72 214 74 Q212 82 204.5 88 Q197 94 188 95 L184 96 L184 112 L224 112 L224 92 Z M55 78 Q62 75 63.5 67 Q65 59 59 53 Q53 47 44 48 Q41 49 37 53 Q33 57 32 60 Q31 67 34.5 72 Q38 77 43.5 79 Q49 81 55 78 Z M191 78 Q198 75 199.5 67 Q201 59 195 53 Q189 47 180 48 Q177 49 173 53 Q169 57 168 60 Q167 67 170.5 72 Q174 77 179.5 79 Q185 81 191 78 Z " />
</font>
</svg>
