<?xml version="1.0" encoding="UTF-8"?>
<svg xmlns="http://www.w3.org/2000/svg" xmlns:xlink="http://www.w3.org/1999/xlink" version="1.2" >
<font id="Quadrel Bold">
<font-face  font-family="Quadrel" units-per-em="256" ascent="256" descent="0" font-style="normal" font-weight="700" font-stretch="normal" cap-height="192" x-height="128" underline-position="2" underline-thickness="0" />
<missing-glyph  d="" />
<glyph glyph-name="user-default-solid" unicode="&#xe000;" horiz-adv-x="256" d="M183 79 Q166 85 158 108 Q143 101 128 101 Q113 101 98 108 Q95 99 89 91 Q83 83 73 80 Q54 74 44 68 Q31 59 23.5 46 Q16 33 16 11 Q16 8 17.5 6.5 Q19 5 21 5 L235 5 Q237 5 238.5 6.5 Q240 8 240 11 Q240 33 232.5 46 Q225 59 212 67 Q202 73 183 79 Z M128 251 Q112 251 98.5 243 Q85 235 77 221.5 Q69 208 69 192 L69 171 Q69 155 77 141.5 Q85 128 98.5 120 Q112 112 128 112 Q144 112 157.5 120 Q171 128 179 141.5 Q187 155 187 171 L187 192 Q187 208 179 221.5 Q171 235 157.5 243 Q144 251 128 251 Z " />
<glyph glyph-name="triangle-up-solid" unicode="&#xe001;" horiz-adv-x="256" d="M224 56 L32 56 Q27 56 25 60 Q23 64 26 69 L122 197 Q124 200 128 200 Q132 200 134 197 L230 69 Q233 64 230.5 60 Q228 56 224 56 Z " />
<glyph glyph-name="triangle-right-solid" unicode="&#xe002;" horiz-adv-x="256" d="M64 24 Q62 24 60 25 Q56 28 56 32 L56 224 Q56 229 60 231 Q64 233 69 230 L197 134 Q200 132 200 128 Q200 124 197 122 L69 26 Q66 24 64 24 Z " />
<glyph glyph-name="triangle-left-solid" unicode="&#xe003;" horiz-adv-x="256" d="M192 24 Q190 24 187 26 L59 122 Q56 124 56 128 Q56 132 59 134 L187 230 Q192 233 196 231 Q200 229 200 224 L200 32 Q200 27 196 25 Q194 24 192 24 Z " />
<glyph glyph-name="triangle-down-solid" unicode="&#xe004;" horiz-adv-x="256" d="M128 56 Q124 56 122 59 L26 187 Q23 192 25 196 Q27 200 32 200 L224 200 Q229 200 231 195.5 Q233 191 230 187 L134 59 Q132 56 128 56 Z " />
<glyph glyph-name="trash-solid" unicode="&#xe005;" horiz-adv-x="256" d="M240 211 L173 211 L173 245 Q173 249 171 251 Q169 253 165 253 L91 253 Q87 253 85 251 Q83 249 83 245 L83 211 L16 211 Q13 211 10.5 208.5 Q8 206 8 202.5 Q8 199 10.5 197 Q13 195 16 195 L40 195 L40 21 Q40 14 45.5 8.5 Q51 3 59 3 L197 3 Q205 3 210.5 8.5 Q216 14 216 21 L216 195 L240 195 Q243 195 245.5 197 Q248 199 248 202.5 Q248 206 245.5 208.5 Q243 211 240 211 Z M99 53 Q99 50 96.5 47.5 Q94 45 90.5 45 Q87 45 85 47.5 Q83 50 83 53 L83 160 Q83 163 85 165.5 Q87 168 90.5 168 Q94 168 96.5 165.5 Q99 163 99 160 L99 53 Z M99 237 L157 237 L157 211 L99 211 L99 237 Z M136 53 Q136 50 133.5 47.5 Q131 45 128 45 Q125 45 122.5 47.5 Q120 50 120 53 L120 160 Q120 163 122.5 165.5 Q125 168 128 168 Q131 168 133.5 165.5 Q136 163 136 160 L136 53 Z M173 53 Q173 50 171 47.5 Q169 45 165.5 45 Q162 45 159.5 47.5 Q157 50 157 53 L157 160 Q157 163 159.5 165.5 Q162 168 165.5 168 Q169 168 171 165.5 Q173 163 173 160 L173 53 Z " />
<glyph glyph-name="times-square-solid" unicode="&#xe006;" horiz-adv-x="256" d="M235 245 L21 245 Q17 245 14 242 Q11 239 11 235 L11 21 Q11 17 14 14 Q17 11 21 11 L235 11 Q239 11 242 14 Q245 17 245 21 L245 235 Q245 239 242 242 Q239 245 235 245 Z M178 93 Q181 90 181 85.5 Q181 81 178 78 Q175 75 170.5 75 Q166 75 163 78 L128 113 L93 78 Q90 75 85.5 75 Q81 75 78 78 Q75 81 75 85.5 Q75 90 78 93 L113 128 L78 163 Q75 166 75 170.5 Q75 175 78 178 Q81 181 85.5 181 Q90 181 93 178 L128 143 L163 178 Q166 181 170.5 181 Q175 181 178 178 Q181 175 181 170.5 Q181 166 178 163 L143 128 L178 93 Z " />
<glyph glyph-name="times-circle-solid" unicode="&#xe009;" horiz-adv-x="256" d="M128 256 Q93 256 64 238.5 Q35 221 17.5 192 Q0 163 0 128 Q0 93 17.5 64 Q35 35 64 17.5 Q93 0 128 0 Q163 0 192 17.5 Q221 35 238.5 64 Q256 93 256 128 Q256 163 238.5 192 Q221 221 192 238.5 Q163 256 128 256 Z M178 93 Q181 90 181 85.5 Q181 81 178 78 Q175 75 170.5 75 Q166 75 163 78 L128 113 L93 78 Q90 75 85.5 75 Q81 75 78 78 Q75 81 75 85.5 Q75 90 78 93 L113 128 L78 163 Q75 166 75 170.5 Q75 175 78 178 Q81 181 85.5 181 Q90 181 93 178 L128 143 L163 178 Q166 181 170.5 181 Q175 181 178 178 Q181 175 181 170.5 Q181 166 178 163 L143 128 L178 93 Z " />
<glyph glyph-name="settings-solid" unicode="&#xe010;" horiz-adv-x="256" d="M217 112 Q219 120 219 128 Q219 136 217 144 L243 164 Q245 165 245.5 167 Q246 169 245 171 L223 207 Q221 211 217 210 L187 197 Q175 207 159 213 L155 246 Q154 248 152.5 249.5 Q151 251 149 251 L107 251 Q105 251 103.5 249.5 Q102 248 101 246 L97 213 Q81 207 69 197 L39 210 Q35 212 32 208 L11 171 Q10 170 10.5 168 Q11 166 12 164 L39 144 Q36 128 39 112 L13 92 Q11 91 10.5 89 Q10 87 11 85 L33 49 Q35 45 39 46 L69 59 Q81 49 97 43 L101 10 Q102 8 103.5 6.5 Q105 5 107 5 L149 5 Q151 5 152.5 6.5 Q154 8 155 10 L159 43 Q175 49 187 59 L217 46 Q221 44 224 48 L245 85 Q246 86 245.5 88 Q245 90 244 92 L217 112 Z M128 91 Q112 91 101.5 101.5 Q91 112 91 128 Q91 144 101.5 154.5 Q112 165 128 165 Q144 165 154.5 154.5 Q165 144 165 128 Q165 112 154.5 101.5 Q144 91 128 91 Z " />
<glyph glyph-name="select-square-solid" unicode="&#xe011;" horiz-adv-x="256" d="M245 253 L11 253 Q7 253 5 251 Q3 249 3 245 L3 11 Q3 7 5 5 Q7 3 11 3 L245 3 Q249 3 251 5 Q253 7 253 11 L253 245 Q253 249 251 251 Q249 253 245 253 Z M211 128 Q211 125 208.5 122.5 Q206 120 202.5 120 Q199 120 197 122.5 Q195 125 195 128 L195 183 L113 101 Q110 99 106.5 99 Q103 99 100.5 101 Q98 103 98 106.5 Q98 110 101 112 L183 194 L128 194 Q125 194 122.5 196.5 Q120 199 120 202 Q120 205 122.5 207.5 Q125 210 128 210 L203 210 Q205 210 205 210 Q209 208 209.5 206 Q210 204 210 203 L210 128 L211 128 Z M205 210 Q205 210 205 210 L206 210 L205 210 L206 210 L205 210 Z M203 211 Q205 211 205 211 Q205 211 203 211 Z M210 206 Q208 210 206 210 L209 209 L210 206 Z M211 203 Q211 205 211 205 Q211 205 211 203 Z " />
<glyph glyph-name="plus-square-solid" unicode="&#xe012;" horiz-adv-x="256" d="M235 245 L21 245 Q17 245 14 242 Q11 239 11 235 L11 21 Q11 17 14 14 Q17 11 21 11 L235 11 Q239 11 242 14 Q245 17 245 21 L245 235 Q245 239 242 242 Q239 245 235 245 Z M181 117 L139 117 L139 75 Q139 70 135.5 67 Q132 64 128 64 Q124 64 120.5 67 Q117 70 117 75 L117 117 L75 117 Q70 117 67 120.5 Q64 124 64 128 Q64 132 67 135.5 Q70 139 75 139 L117 139 L117 181 Q117 186 120.5 189 Q124 192 128 192 Q132 192 135.5 189 Q139 186 139 181 L139 139 L181 139 Q186 139 189 135.5 Q192 132 192 128 Q192 124 189 120.5 Q186 117 181 117 Z " />
<glyph glyph-name="plus-circle-solid" unicode="&#xe015;" horiz-adv-x="256" d="M128 256 Q93 256 64 238.5 Q35 221 17.5 192 Q0 163 0 128 Q0 93 17.5 64 Q35 35 64 17.5 Q93 0 128 0 Q163 0 192 17.5 Q221 35 238.5 64 Q256 93 256 128 Q256 163 238.5 192 Q221 221 192 238.5 Q163 256 128 256 Z M181 117 L139 117 L139 75 Q139 70 135.5 67 Q132 64 128 64 Q124 64 120.5 67 Q117 70 117 75 L117 117 L75 117 Q70 117 67 120.5 Q64 124 64 128 Q64 132 67 135.5 Q70 139 75 139 L117 139 L117 181 Q117 186 120.5 189 Q124 192 128 192 Q132 192 135.5 189 Q139 186 139 181 L139 139 L181 139 Q186 139 189 135.5 Q192 132 192 128 Q192 124 189 120.5 Q186 117 181 117 Z " />
<glyph glyph-name="pencil-square-solid" unicode="&#xe016;" horiz-adv-x="256" d="M245 253 L11 253 Q7 253 5 251 Q3 249 3 245 L3 11 Q3 7 5 5 Q7 3 11 3 L245 3 Q249 3 251 5 Q253 7 253 11 L253 245 Q253 249 251 251 Q249 253 245 253 Z M56 85 L70 126 Q71 130 73 132 L157 215 Q160 219 165 219 Q170 219 173 215 L201 187 Q204 184 204 179 Q204 174 201 171 L117 87 Q116 85 113 84 L71 71 Q69 70 67 70 L64 70 L62 70 Q58 72 56 76.5 Q54 81 56 85 Z M201 37 L56 37 Q53 37 50.5 39.5 Q48 42 48 45 Q48 48 50.5 50.5 Q53 53 56 53 L201 53 Q204 53 206.5 50.5 Q209 48 209 45 Q209 42 206.5 39.5 Q204 37 201 37 Z " />
<glyph glyph-name="pencil-solid" unicode="&#xe017;" horiz-adv-x="256" d="M232 24 L24 24 Q21 24 18.5 21.5 Q16 19 16 16 Q16 13 18.5 10.5 Q21 8 24 8 L232 8 Q235 8 237.5 10.5 Q240 13 240 16 Q240 19 237.5 21.5 Q235 24 232 24 Z M35 43 Q36 43 36 43 L100 65 Q101 65 102 66 L230 194 Q232 195 232 197 Q232 199 230 201 L188 244 Q186 245 184 245 Q182 245 180 244 L52 116 Q51 115 51 114 L30 50 Q29 48 30 45.5 Q31 43 33 43 L35 43 Z " />
<glyph glyph-name="minus-square-solid" unicode="&#xe018;" horiz-adv-x="256" d="M235 245 L21 245 Q17 245 14 242 Q11 239 11 235 L11 21 Q11 17 14 14 Q17 11 21 11 L235 11 Q239 11 242 14 Q245 17 245 21 L245 235 Q245 239 242 242 Q239 245 235 245 Z M181 117 L75 117 Q70 117 67 120.5 Q64 124 64 128 Q64 132 67 135.5 Q70 139 75 139 L181 139 Q186 139 189 135.5 Q192 132 192 128 Q192 124 189 120.5 Q186 117 181 117 Z " />
<glyph glyph-name="minus-circle-solid" unicode="&#xe021;" horiz-adv-x="256" d="M128 256 Q93 256 64 238.5 Q35 221 17.5 192 Q0 163 0 128 Q0 93 17.5 64 Q35 35 64 17.5 Q93 0 128 0 Q163 0 192 17.5 Q221 35 238.5 64 Q256 93 256 128 Q256 163 238.5 192 Q221 221 192 238.5 Q163 256 128 256 Z M181 117 L75 117 Q70 117 67 120.5 Q64 124 64 128 Q64 132 67 135.5 Q70 139 75 139 L181 139 Q186 139 189 135.5 Q192 132 192 128 Q192 124 189 120.5 Q186 117 181 117 Z " />
<glyph glyph-name="home-solid" unicode="&#xe024;" horiz-adv-x="256" d="M233 159 L131 244 Q128 247 124 244 L23 159 Q21 157 21 155 L21 16 Q21 14 22.5 12.5 Q24 11 27 11 L96 11 Q98 11 99.5 12.5 Q101 14 101 16 L101 80 Q101 82 102.5 83.5 Q104 85 107 85 L149 85 Q152 85 153.5 83.5 Q155 82 155 80 L155 16 Q155 14 156.5 12.5 Q158 11 160 11 L229 11 Q232 11 233.5 12.5 Q235 14 235 16 L235 155 Q235 158 233 159 Z " />
<glyph glyph-name="filter-solid" unicode="&#xe028;" horiz-adv-x="256" d="M149 11 L107 11 Q104 11 102.5 12.5 Q101 14 101 16 L101 105 L12 237 Q11 239 11 241 Q11 243 13 244 Q15 245 16 245 L240 245 Q242 245 243.5 243.5 Q245 242 245 240.5 Q245 239 244 237 L155 105 L155 16 Q155 14 153.5 12.5 Q152 11 149 11 Z " />
<glyph glyph-name="file-select-solid" unicode="&#xe030;" horiz-adv-x="256" d="M224 253 L32 253 Q29 253 26.5 251 Q24 249 24 245 L24 11 Q24 7 26.5 5 Q29 3 32 3 L224 3 Q227 3 229.5 5 Q232 7 232 11 L232 245 Q232 249 229.5 251 Q227 253 224 253 Z M189 128 Q189 125 187 122.5 Q185 120 181.5 120 Q178 120 175.5 122.5 Q173 125 173 128 L173 183 L91 101 Q89 99 85.5 99 Q82 99 79.5 101 Q77 103 77 106.5 Q77 110 79 112 L162 194 L107 194 Q103 194 101 196.5 Q99 199 99 202 Q99 205 101 207.5 Q103 210 107 210 L181 210 Q183 210 184 210 Q188 208 188.5 206 Q189 204 189 203 L189 128 Z M184 210 Q184 210 184 210 L184 210 L184 210 L184 210 L184 210 Z M189 206 Q187 210 185 210 L187 209 L189 206 Z M181 211 Q183 211 183 211 Q183 211 181 211 Z M189 203 Q189 205 189 205 Q189 205 189 203 Z " />
<glyph glyph-name="file-extend-solid" unicode="&#xe032;" horiz-adv-x="256" d="M224 253 L32 253 Q29 253 26.5 251 Q24 249 24 245 L24 11 Q24 7 26.5 5 Q29 3 32 3 L224 3 Q227 3 229.5 5 Q232 7 232 11 L232 245 Q232 249 229.5 251 Q227 253 224 253 Z M128 47 Q109 47 92 57 Q75 67 65.5 83.5 Q56 100 56 119 Q56 138 64.5 153.5 Q73 169 87.5 179 Q102 189 119 191 L119 201 Q119 205 123 207.5 Q127 210 132 208 L161 190 Q164 187 164 183 Q164 179 161 176 L132 158 Q131 157 128.5 157 Q126 157 124 158 Q119 160 119 165 L119 175 Q99 172 85.5 156 Q72 140 72 119 Q72 104 79.5 91.5 Q87 79 100 71 Q113 63 128 63 Q143 63 156 71 Q169 79 176.5 91.5 Q184 104 184 120 Q184 136 175 150 Q173 153 173.5 156.5 Q174 160 177 162 Q180 164 183 163 Q186 162 188 159 Q201 141 200.5 120.5 Q200 100 190.5 83.5 Q181 67 164 57 Q147 47 128 47 Z " />
<glyph glyph-name="eye-solid" unicode="&#xe033;" horiz-adv-x="256" d="M88 128 Q88 111 99.5 99.5 Q111 88 128 88 Q145 88 156.5 99.5 Q168 111 168 128 Q168 145 156.5 156.5 Q145 168 128 168 Q111 168 99.5 156.5 Q88 145 88 128 Z M250 140 Q230 167 206 186 Q168 216 127 216 Q86 216 47 184 Q23 165 6 139 Q3 134 3 128 Q3 122 6 117 L6 116 Q25 89 49 70 Q87 40 128.5 40 Q170 40 210 74 Q233 93 249 117 Q253 122 253 128 Q253 134 250 140 Z M128 72 Q113 72 100 79.5 Q87 87 79.5 100 Q72 113 72 128 Q72 143 79.5 156 Q87 169 100 176.5 Q113 184 128 184 Q143 184 156 176.5 Q169 169 176.5 156 Q184 143 184 128 Q184 113 176.5 100 Q169 87 156 79.5 Q143 72 128 72 Z " />
<glyph glyph-name="extend-square-solid" unicode="&#xe034;" horiz-adv-x="256" d="M245 253 L11 253 Q7 253 5 251 Q3 249 3 245 L3 11 Q3 7 5 5 Q7 3 11 3 L245 3 Q249 3 251 5 Q253 7 253 11 L253 245 Q253 249 251 251 Q249 253 245 253 Z M128 47 Q109 47 92 57 Q75 67 65.5 83.5 Q56 100 56 119 Q56 138 64.5 153.5 Q73 169 87.5 179 Q102 189 119 191 L119 201 Q119 205 123 207.5 Q127 210 132 208 L161 190 Q164 187 164 183 Q164 179 161 176 L132 158 Q131 157 128.5 157 Q126 157 124 158 Q119 160 119 165 L119 175 Q99 172 85.5 156 Q72 140 72 119 Q72 104 79.5 91.5 Q87 79 100 71 Q113 63 128 63 Q143 63 156 71 Q169 79 176.5 91.5 Q184 104 184 120 Q184 136 175 150 Q173 153 173.5 156.5 Q174 160 177 162 Q180 164 183 163 Q186 162 188 159 Q201 141 200.5 120.5 Q200 100 190.5 83.5 Q181 67 164 57 Q147 47 128 47 Z " />
<glyph glyph-name="exclamation-triangle-solid" unicode="&#xe035;" horiz-adv-x="256" d="M250 29 L138 237 Q136 239 133.5 241 Q131 243 128 243 Q122 243 118 237 L6 29 Q4 23 7 18 Q10 13 15 13 L239 13 Q242 13 244.5 14.5 Q247 16 249 18 Q252 23 250 29 Z M117 157 Q117 162 120.5 165 Q124 168 128 168 Q132 168 135.5 165 Q139 162 139 157 L139 99 Q139 94 135.5 91 Q132 88 128 88 Q124 88 120.5 91 Q117 94 117 99 L117 157 Z M128 45 Q121 45 116.5 50 Q112 55 112 61.5 Q112 68 116.5 72.5 Q121 77 128 77 Q135 77 139.5 72.5 Q144 68 144 61.5 Q144 55 139.5 50 Q135 45 128 45 Z " />
<glyph glyph-name="exclamation-square-solid" unicode="&#xe036;" horiz-adv-x="256" d="M235 245 L21 245 Q17 245 14 242 Q11 239 11 235 L11 21 Q11 17 14 14 Q17 11 21 11 L235 11 Q239 11 242 14 Q245 17 245 21 L245 235 Q245 239 242 242 Q239 245 235 245 Z M117 192 Q117 196 120.5 199.5 Q124 203 128 203 Q132 203 135.5 199.5 Q139 196 139 192 L139 107 Q139 102 135.5 99 Q132 96 128 96 Q124 96 120.5 99 Q117 102 117 107 L117 192 Z M128 53 Q121 53 116.5 58 Q112 63 112 69.5 Q112 76 116.5 80.5 Q121 85 128 85 Q135 85 139.5 80.5 Q144 76 144 69.5 Q144 63 139.5 58 Q135 53 128 53 Z " />
<glyph glyph-name="exclamation-circle-solid" unicode="&#xe037;" horiz-adv-x="256" d="M128 256 Q93 256 64 238.5 Q35 221 17.5 192 Q0 163 0 128 Q0 93 17.5 64 Q35 35 64 17.5 Q93 0 128 0 Q163 0 192 17.5 Q221 35 238.5 64 Q256 93 256 128 Q256 163 238.5 192 Q221 221 192 238.5 Q163 256 128 256 Z M117 192 Q117 196 120.5 199.5 Q124 203 128 203 Q132 203 135.5 199.5 Q139 196 139 192 L139 107 Q139 102 135.5 99 Q132 96 128 96 Q124 96 120.5 99 Q117 102 117 107 L117 192 Z M128 53 Q121 53 116.5 58 Q112 63 112 69.5 Q112 76 116.5 80.5 Q121 85 128 85 Q135 85 139.5 80.5 Q144 76 144 69.5 Q144 63 139.5 58 Q135 53 128 53 Z " />
<glyph glyph-name="circle-solid" unicode="&#xe047;" horiz-adv-x="256" d="M128 0 Q102 0 79 9.5 Q56 19 37.5 37 Q19 55 9.5 78.5 Q0 102 0 128 Q0 154 9.5 177 Q19 200 37 218.5 Q55 237 78.5 246.5 Q102 256 128 256 Q154 256 177 246.5 Q200 237 218.5 219 Q237 201 246.5 177.5 Q256 154 256 128 Q256 102 246.5 79 Q237 56 218.5 37.5 Q200 19 177 9.5 Q154 0 128 0 Z " />
<glyph glyph-name="check-circle-solid" unicode="&#xe049;" horiz-adv-x="256" d="M128 256 Q93 256 64 238.5 Q35 221 17.5 192 Q0 163 0 128 Q0 93 17.5 64 Q35 35 64 17.5 Q93 0 128 0 Q163 0 192 17.5 Q221 35 238.5 64 Q256 93 256 128 Q256 163 238.5 192 Q221 221 192 238.5 Q163 256 128 256 Z M199 158 L114 73 Q111 69 106.5 69 Q102 69 99 73 L57 115 Q53 118 53 122.5 Q53 127 56.5 130 Q60 133 64 133 Q68 133 71 130 L107 95 L185 173 Q188 176 192 176 Q196 176 199.5 173 Q203 170 203 165.5 Q203 161 199 158 Z " />
<glyph glyph-name="calendar-solid" unicode="&#xe050;" horiz-adv-x="256" d="M245 253 L11 253 Q7 253 5 251 Q3 249 3 245 L3 11 Q3 7 5 5 Q7 3 11 3 L245 3 Q249 3 251 5 Q253 7 253 11 L253 245 Q253 249 251 251 Q249 253 245 253 Z M91 48 Q77 48 65 55 Q62 57 61 60 Q60 63 61.5 65.5 Q63 68 66.5 69 Q70 70 73 69 Q81 64 91 64 Q98 64 103 66 Q111 70 111 78 Q111 86 104 89.5 Q97 93 87 93 Q84 93 81.5 95.5 Q79 98 79 101 Q79 104 81.5 106.5 Q84 109 87 109 L91 109 Q96 109 102 112.5 Q108 116 108 122.5 Q108 129 102.5 131 Q97 133 91 133 Q82 133 76 129 Q73 127 70 127.5 Q67 128 65 130.5 Q63 133 63.5 136.5 Q64 140 66 142 Q77 149 91.5 149 Q106 149 115 142 Q124 135 124 123 Q124 111 115 102 Q127 94 127 78 Q127 65 117.5 56.5 Q108 48 91 48 Z M179 57 Q179 53 176.5 51 Q174 49 171 49 Q168 49 165.5 51 Q163 53 163 57 L163 124 L152 116 Q149 114 146 114 Q143 114 141 116.5 Q139 119 139.5 122.5 Q140 126 142 128 L163 144 Q165 146 167 146 L171 146 Q174 146 176.5 143.5 Q179 141 179 138 L179 57 Z M209 180 L46 180 Q43 180 40.5 182.5 Q38 185 38 188 Q38 191 40.5 193.5 Q43 196 46 196 L209 196 Q212 196 214.5 193.5 Q217 191 217 188 Q217 185 214.5 182.5 Q212 180 209 180 Z " />
<glyph glyph-name="cloud-file-add-solid" unicode="&#xea05;" horiz-adv-x="256" d="M211 141 Q208 163 195.5 180.5 Q183 198 163.5 208 Q144 218 122 218 Q100 218 80.5 207.5 Q61 197 48.5 178.5 Q36 160 33 138 Q20 133 11 121 Q0 108 0 90 Q0 76 7 64 Q14 52 26 45 Q38 38 52 38 L204 38 Q218 38 230 45 Q242 52 249 64 Q256 76 256 90 Q256 109 243 123.5 Q230 138 211 141 Z M171 108 L137 108 L137 73 Q137 69 134.5 67 Q132 65 128.5 65 Q125 65 122.5 67 Q120 69 120 73 L120 108 L86 108 Q82 108 79.5 110.5 Q77 113 77 116.5 Q77 120 79.5 122.5 Q82 125 86 125 L120 125 L120 159 Q120 163 122.5 165 Q125 167 128.5 167 Q132 167 134.5 165 Q137 163 137 159 L137 125 L171 125 Q175 125 177.5 122.5 Q180 120 180 116.5 Q180 113 177.5 110.5 Q175 108 171 108 Z " />
<glyph glyph-name="coat-ch-solid" unicode="&#xea06;" horiz-adv-x="234" d="M117 256 Q60 256 2 237 L2 236 Q2 190 3 168 Q6 131 16 103 Q28 70 50 46 Q76 18 117 0 Q159 18 184 46 Q207 70 219 103 Q228 131 231 168 Q233 190 233 236 L233 237 Q175 256 117 256 Z M140 117 L140 63 L94 63 L94 117 L41 117 L41 164 L94 164 L94 218 L141 218 L141 164 L195 164 L195 117 L140 117 Z " />
</font>
</svg>
